<?xml version="1.0" encoding="utf-8"?>
<!-- Generator: Adobe Illustrator 28.0.0, SVG Export Plug-In . SVG Version: 6.00 Build 0)  -->
<svg version="1.1" id="Calque_1" xmlns="http://www.w3.org/2000/svg" xmlns:xlink="http://www.w3.org/1999/xlink" x="0px" y="0px"
	 viewBox="0 0 735 732" style="enable-background:new 0 0 735 732;" xml:space="preserve">
<style type="text/css">
	.st0{fill:#090720;}
	.st1{opacity:0.4;fill:#090720;enable-background:new    ;}
	.st2{opacity:0.1;fill:#090720;enable-background:new    ;}
</style>
<path class="st0" d="M294.7,438.9h146.8V292.7H294.7V438.9z"/>
<path class="st1" d="M147.8,438.9h146.8V292.7H147.8V438.9z"/>
<path class="st1" d="M441.5,438.9h146.8V292.7H441.5V438.9z"/>
<path class="st1" d="M441.5,585.2V438.9H294.7v146.2H441.5z"/>
<path class="st1" d="M441.5,292.7V146.4H294.7v146.2H441.5z"/>
<path class="st2" d="M441.5,146.4V0.2H294.7v146.2H441.5z"/>
<path class="st2" d="M441.5,731.4V585.2H294.7v146.2H441.5z"/>
<path class="st2" d="M147.8,292.7H1v146.2h146.8V292.7z"/>
<path class="st2" d="M294.7,146.4H147.8v146.2h146.8V146.4z"/>
<path class="st2" d="M588.3,146.4H441.5v146.2h146.8V146.4z"/>
<path class="st2" d="M294.7,438.9H147.8v146.2h146.8V438.9z"/>
<path class="st2" d="M588.3,438.9H441.5v146.2h146.8V438.9z"/>
<path class="st2" d="M735.1,292.7H588.3v146.2h146.8V292.7z"/>
</svg>
