<?xml version="1.0" encoding="utf-8"?>
<!-- Generator: Adobe Illustrator 28.0.0, SVG Export Plug-In . SVG Version: 6.00 Build 0)  -->
<svg version="1.1" xmlns="http://www.w3.org/2000/svg" xmlns:xlink="http://www.w3.org/1999/xlink" x="0px" y="0px"
	 viewBox="0 0 444 86" style="enable-background:new 0 0 444 86;" xml:space="preserve">
<style type="text/css">
	.st0{fill:#FFFFFF;}
	.st1{opacity:0.6;fill:#FFFFFF;enable-background:new    ;}
	.st2{opacity:0.3;fill:#FFFFFF;enable-background:new    ;}
</style>
<g id="Calque_2">
</g>
<g id="Calque_1">
	<path class="st0" d="M189.8,28c2.5,1.3,4.5,3.3,5.9,5.8c1.4,2.6,2.2,5.7,2.2,9.3v23.7h-8.3V44.4c0-3.6-0.9-6.4-2.7-8.3
		c-1.8-1.9-4.3-2.9-7.4-2.9c-3.1,0-5.6,1-7.4,2.9c-1.8,1.9-2.7,4.7-2.7,8.3v22.5h-8.3V44.4c0-3.6-0.9-6.4-2.7-8.3
		c-1.8-1.9-4.3-2.9-7.4-2.9c-3.1,0-5.6,1-7.4,2.9c-1.8,1.9-2.7,4.7-2.7,8.3v22.5h-8.3V26.7h8.3v4.6c1.4-1.7,3.1-2.9,5.2-3.9
		c2.1-0.9,4.3-1.4,6.7-1.4c3.2,0,6.1,0.7,8.6,2c2.5,1.4,4.5,3.3,5.9,5.9c1.2-2.4,3.1-4.4,5.7-5.8c2.6-1.4,5.4-2.2,8.3-2.2
		C184.5,26,187.3,26.7,189.8,28L189.8,28L189.8,28z"/>
	<path class="st0" d="M220.9,27.9c2.4-1.3,5.2-1.9,8.3-1.9c3.5,0,6.7,0.9,9.6,2.6c2.9,1.7,5.2,4.1,6.8,7.3s2.5,6.7,2.5,10.7
		c0,4-0.8,7.6-2.5,10.8c-1.7,3.2-3.9,5.7-6.8,7.4c-2.9,1.8-6.1,2.7-9.6,2.7c-3.1,0-5.8-0.6-8.2-1.9c-2.4-1.2-4.3-2.8-5.9-4.6v25
		h-8.3V26.7h8.3v5.9C216.6,30.7,218.5,29.2,220.9,27.9L220.9,27.9z M238,39.4c-1.2-2-2.7-3.5-4.5-4.6c-1.9-1-3.9-1.6-6-1.6
		c-2.1,0-4.1,0.5-6,1.6c-1.9,1.1-3.4,2.6-4.5,4.7c-1.2,2-1.7,4.5-1.7,7.2c0,2.8,0.6,5.2,1.7,7.3c1.2,2.1,2.7,3.6,4.5,4.7
		c1.9,1.1,3.9,1.6,6,1.6c2.1,0,4.2-0.5,6-1.6c1.9-1.1,3.4-2.7,4.5-4.8c1.2-2.1,1.7-4.5,1.7-7.3C239.7,43.9,239.1,41.5,238,39.4
		L238,39.4z"/>
	<path class="st0" d="M256.8,35.9c1.7-3.1,4-5.5,6.9-7.3s6.1-2.6,9.6-2.6c3.2,0,5.9,0.6,8.3,1.9c2.4,1.2,4.3,2.8,5.7,4.6v-5.8h8.4
		v40.2h-8.4v-6c-1.4,1.9-3.3,3.5-5.8,4.7c-2.4,1.3-5.2,1.9-8.3,1.9c-3.5,0-6.6-0.9-9.5-2.7c-2.9-1.8-5.2-4.3-6.8-7.4
		c-1.7-3.2-2.5-6.8-2.5-10.8S255.1,39,256.8,35.9L256.8,35.9z M285.5,39.5c-1.2-2-2.6-3.6-4.5-4.7c-1.9-1.1-3.9-1.6-6-1.6
		c-2.1,0-4.1,0.5-6,1.6c-1.9,1-3.4,2.6-4.5,4.6c-1.2,2-1.7,4.4-1.7,7.2c0,2.8,0.6,5.2,1.7,7.3c1.2,2.1,2.7,3.7,4.5,4.8
		s3.9,1.6,6,1.6c2.1,0,4.1-0.5,6-1.6c1.9-1.1,3.4-2.6,4.5-4.7c1.2-2.1,1.7-4.5,1.7-7.3C287.3,44,286.7,41.6,285.5,39.5L285.5,39.5z"
		/>
	<path class="st0" d="M304.6,35.8c1.7-3.1,4-5.6,7-7.3c3-1.7,6.4-2.5,10.3-2.5c4.9,0,8.9,1.2,12.1,3.5c3.2,2.3,5.3,5.6,6.5,9.9h-9
		c-0.7-2-1.9-3.5-3.5-4.7c-1.6-1.1-3.6-1.7-6.1-1.7c-3.4,0-6.1,1.2-8.2,3.6c-2,2.4-3,5.8-3,10.1c0,4.3,1,7.7,3,10.1
		c2,2.4,4.8,3.6,8.2,3.6c4.8,0,8-2.1,9.6-6.3h9c-1.2,4.1-3.4,7.3-6.6,9.7c-3.2,2.4-7.2,3.6-12,3.6c-3.9,0-7.3-0.9-10.3-2.6
		c-3-1.7-5.3-4.2-7-7.3c-1.7-3.1-2.5-6.8-2.5-10.9C302.1,42.6,303,39,304.6,35.8L304.6,35.8L304.6,35.8z"/>
	<path class="st0" d="M357.8,33.5v22.3c0,1.5,0.4,2.6,1.1,3.2c0.7,0.6,1.9,1,3.6,1h5.1v6.9H361c-3.8,0-6.6-0.9-8.6-2.6
		c-2-1.7-3-4.6-3-8.5V33.5h-4.8v-6.8h4.8v-10h8.4v10h9.8v6.8L357.8,33.5L357.8,33.5z"/>
	<path class="st0" d="M123.1,26.7v40.2h-8.3V26.7H123.1z"/>
	<path class="st0" d="M123.3,12.7h-8.8v8.5h8.8V12.7z"/>
	<path class="st0" d="M391.8,16.7h-7.4v22.8h3.2V30h4.2c2.7,0,4.7-0.6,6-1.9c1.3-1.3,2-2.9,2-4.8c0-1.9-0.7-3.6-2-4.8
		C396.4,17.3,394.4,16.7,391.8,16.7z M387.6,19.3h4.2c3.2,0,4.7,1.3,4.7,4.1c0,1.3-0.4,2.3-1.1,3c-0.8,0.7-2,1-3.6,1h-4.2
		L387.6,19.3L387.6,19.3z"/>
	<path class="st0" d="M405.9,16.7h-3.2v22.8h3.2V16.7z"/>
	<path class="st0" d="M423.5,31.4c0,1.8-0.5,3.2-1.3,4.2c-0.9,0.9-2.1,1.4-3.6,1.4s-2.7-0.5-3.6-1.4c-0.9-0.9-1.3-2.2-1.3-3.9V21.5
		h-3.1V32c0,1.7,0.3,3.1,1,4.2c0.7,1.2,1.5,2,2.7,2.6c1.1,0.6,2.4,0.9,3.8,0.9c1.2,0,2.4-0.3,3.4-0.8c0.9-0.5,1.6-1.1,2.2-1.8v2.4
		h3.2v-18h-3.2V31.4z"/>
	<path class="st0" d="M443.1,31.8c-0.6-0.7-1.3-1.2-2.1-1.5c-0.8-0.3-1.9-0.7-3.1-1c-1-0.3-1.8-0.5-2.4-0.8c-0.6-0.2-1-0.5-1.4-0.9
		c-0.4-0.4-0.5-0.8-0.5-1.4c0-0.7,0.3-1.3,0.9-1.7c0.6-0.4,1.4-0.7,2.5-0.7c1.1,0,2,0.3,2.7,0.8c0.7,0.5,1,1.3,1.1,2.2V27h3.2v-0.1
		c-0.1-1.7-0.8-3.1-2-4.2c-1.2-1-2.9-1.5-4.8-1.5c-1.3,0-2.5,0.2-3.5,0.7c-1,0.5-1.8,1.1-2.3,1.8c-0.6,0.8-0.8,1.6-0.8,2.6
		c0,1.2,0.3,2.1,0.9,2.8c0.6,0.7,1.3,1.3,2.2,1.6c0.8,0.4,1.9,0.7,3.2,1.1c1.4,0.4,2.5,0.7,3.2,1.1c0.7,0.4,1,0.9,1,1.6
		c0,0.7-0.3,1.3-0.9,1.8c-0.6,0.5-1.5,0.7-2.6,0.7c-1.2,0-2.1-0.3-2.9-0.8c-0.7-0.5-1.1-1.2-1.2-2.1V34H430v0.1
		c0.1,1.1,0.4,2.1,1.1,2.9c0.6,0.8,1.5,1.5,2.6,2c1.1,0.5,2.3,0.7,3.7,0.7c1.3,0,2.4-0.2,3.4-0.7c1-0.5,1.8-1.1,2.3-1.9
		c0.6-0.8,0.8-1.7,0.8-2.7C444,33.4,443.7,32.5,443.1,31.8L443.1,31.8z"/>
	<path class="st0" d="M33.6,50.2h16.8V33.4H33.6V50.2z"/>
	<path class="st1" d="M16.8,50.2h16.8V33.4H16.8V50.2z"/>
	<path class="st1" d="M50.4,50.2h16.8V33.4H50.4V50.2z"/>
	<path class="st1" d="M50.4,66.9V50.2H33.6v16.7H50.4z"/>
	<path class="st1" d="M50.4,33.4V16.7H33.6v16.7H50.4z"/>
	<path class="st2" d="M50.4,16.7V0H33.6v16.7H50.4z"/>
	<path class="st2" d="M50.4,83.6V66.9H33.6v16.7H50.4z"/>
	<path class="st2" d="M16.8,33.4H0v16.7h16.8V33.4z"/>
	<path class="st2" d="M33.6,16.7H16.8v16.7h16.8V16.7z"/>
	<path class="st2" d="M67.1,16.7H50.4v16.7h16.8V16.7z"/>
	<path class="st2" d="M33.6,50.2H16.8v16.7h16.8V50.2z"/>
	<path class="st2" d="M67.1,50.2H50.4v16.7h16.8V50.2z"/>
	<path class="st2" d="M83.9,33.4H67.1v16.7h16.8V33.4z"/>
</g>
</svg>
