<?xml version="1.0" encoding="utf-8"?>
<!-- Generator: Adobe Illustrator 24.1.0, SVG Export Plug-In . SVG Version: 6.00 Build 0)  -->
<svg version="1.0" id="Calque_1" xmlns="http://www.w3.org/2000/svg" xmlns:xlink="http://www.w3.org/1999/xlink" x="0px" y="0px"
	 viewBox="0 0 200 34" style="enable-background:new 0 0 200 34;" xml:space="preserve">
<style type="text/css">
	.st0{fill:#FFFFFF;}
</style>
<g>
	<path class="st0" d="M0,0.6h3.5v32.7H0V0.6z"/>
	<path class="st0" d="M48.1,0.6v32.7h-3.3V7.2l-12.8,22h-1.6L17.4,7.3v26h-3.3V0.6H17l14.2,24.3L45.2,0.6H48.1z"/>
	<path class="st0" d="M80.8,3.6c2.4,2,3.6,4.7,3.6,8.2s-1.2,6.2-3.6,8.2c-2.4,2-5.6,3-9.8,3h-8.8v10.3h-3.5V0.6H71
		C75.2,0.6,78.4,1.6,80.8,3.6z M78.3,17.9c1.7-1.4,2.6-3.4,2.6-6c0-2.6-0.9-4.7-2.6-6.1c-1.7-1.4-4.2-2.1-7.4-2.1h-8.7V20h8.7
		C74.1,20,76.6,19.3,78.3,17.9z"/>
	<path class="st0" d="M110.7,24.6H92.5l-3.9,8.7h-3.6l15-32.7h3.4l14.9,32.7h-3.6L110.7,24.6z M109.4,21.8l-7.9-17.6l-7.9,17.6
		H109.4z"/>
	<path class="st0" d="M128.7,31.5c-2.6-1.4-4.6-3.4-6.1-6c-1.5-2.5-2.2-5.4-2.2-8.5c0-3.1,0.7-6,2.2-8.5c1.5-2.5,3.5-4.5,6.1-6
		c2.6-1.4,5.5-2.1,8.8-2.1c2.4,0,4.7,0.4,6.7,1.2s3.8,2,5.2,3.6l-2.2,2.2c-2.6-2.6-5.8-3.9-9.7-3.9c-2.6,0-4.9,0.6-7.1,1.8
		s-3.8,2.8-5,4.9c-1.2,2.1-1.8,4.4-1.8,6.9s0.6,4.9,1.8,6.9s2.9,3.7,5,4.9c2.1,1.2,4.5,1.8,7.1,1.8c3.9,0,7.1-1.3,9.7-3.9l2.2,2.2
		c-1.4,1.6-3.2,2.7-5.3,3.6c-2.1,0.8-4.3,1.2-6.8,1.2C134.2,33.6,131.3,32.9,128.7,31.5z"/>
	<path class="st0" d="M162.8,3.6h-11.5v-3h26.4v3h-11.5v29.7h-3.5L162.8,3.6L162.8,3.6z"/>
	<path class="st0" d="M200,18.4h-8.7v8.5h-2.9v-8.5h-8.7v-2.8h8.7V7.1h2.9v8.5h8.7V18.4z"/>
</g>
</svg>
